<svg width="205" height="206" viewBox="0 0 205 206" fill="none" xmlns="http://www.w3.org/2000/svg">
<path d="M102.44 205.199H101.99C45.7532 205.199 0 159.432 0 103.179V102.729C0 46.4759 45.7532 0.709229 101.99 0.709229H102.44C158.676 0.709229 204.429 46.4759 204.429 102.729V103.179C204.429 159.432 158.676 205.199 102.44 205.199ZM101.99 7.63099C49.566 7.63099 6.91972 50.2898 6.91972 102.729V103.179C6.91972 155.618 49.566 198.277 101.99 198.277H102.44C154.863 198.277 197.51 155.618 197.51 103.179V102.729C197.51 50.2898 154.863 7.63099 102.44 7.63099H101.99Z" fill="#3D0814"/>
<path d="M115.968 80.0258V101.546H142.581L138.367 130.534H115.968V197.322C111.477 197.945 106.882 198.27 102.218 198.27C96.8347 198.27 91.548 197.841 86.3997 197.011V130.534H61.8555V101.546H86.3997V75.2152C86.3997 58.8799 99.6372 45.6316 115.975 45.6316V45.6454C116.023 45.6454 116.065 45.6316 116.113 45.6316H142.588V70.7022H125.289C120.147 70.7022 115.975 74.876 115.975 80.0189L115.968 80.0258Z" fill="#3D0814"/>
</svg>
